PathFileType	4	(X/Y/Z)	C:\Users\°ÂÌØÂü\Desktop\20210112\bx_n_10_902-Unnamed.trc
DataRate	CameraRate	NumFrames	NumMarkers	Units	OrigDataRate	OrigDataStartFrame	OrigNumFrames
50.00	50.00	       5	0	mm	50.00	182	       484
Frame#	Time	
		

182	3.620	-552.23621	92.37016	1792.71802	-726.83655	207.84428	538.82996	-571.43079	270.85068	1501.72595	-671.83807	213.51074	821.37274	-889.81537	86.32264	1068.26099	-669.52325	52.83112	161.76070	-792.46704	251.00262	639.97864	-786.16382	248.62825	573.42035	-814.89978	260.20477	496.06100	-517.67059	-72.92381	143.47057	-757.25958	-74.30970	874.61896	-596.48297	23.90585	169.24632	-732.97498	70.51450	572.36603	-716.35565	158.06798	220.95990	-796.95679	182.09059	181.56181	-770.86316	231.11444	202.98602	-592.93994	220.34752	174.57365	-882.45593	296.22400	144.77756	-556.63739	255.04166	164.66957	-701.32587	13.40106	525.12024	-622.22241	307.06647	158.11031	-528.09485	304.27472	146.72873	-658.61816	299.11679	157.47971	-668.42200	-19.90929	811.79340	-790.38098	42.14224	172.97971	-795.50262	-44.66668	483.84555	-547.56653	-29.78262	162.95728	-760.64844	-17.45161	205.36765	-875.88751	-78.54328	141.29303	-564.35089	92.43138	1290.24524	-764.64825	-63.16552	757.58856	-761.15930	-37.40193	616.68884	-762.13531	-33.49385	567.57037	-675.54248	174.92188	162.31465	-607.28723	-76.60570	156.87076	-649.67267	-69.04132	160.56270	-696.93701	233.04918	1063.23499	-586.85565	-82.16560	1489.65979	-782.36090	274.92590	876.11816	-776.58228	268.11090	744.54193	-687.07971	-14.28300	1049.72412	-716.99689	68.94466	219.51668	-748.63593	145.23587	574.92560	
183	3.640	-562.52118	91.98967	1799.06995	-723.86823	207.76627	538.70844	-577.73309	270.29218	1507.14685	-665.80237	214.21344	820.92798	-884.04401	87.23595	1067.21045	-669.52325	52.83112	161.76070	-788.48645	251.26329	640.43829	-782.51123	249.37021	574.50549	-812.15314	260.28583	496.25339	-517.67371	-73.01521	143.37901	-752.01642	-74.20336	875.71088	-596.36023	23.93201	169.25987	-729.74030	71.19508	572.81097	-716.02686	157.97891	220.58875	-796.67566	182.47217	181.33415	-770.43634	231.18811	203.10561	-592.73529	220.44182	174.52574	-882.51593	296.25482	144.79489	-556.22351	255.18694	164.43820	-698.68719	13.67248	525.38995	-622.26727	307.15652	158.26944	-528.06287	304.11459	146.50941	-658.58893	299.15472	157.34598	-663.45618	-19.46764	811.80713	-790.26550	42.52787	173.01385	-792.56390	-43.92578	484.32361	-547.28339	-29.64664	162.84721	-759.81091	-17.35626	205.81488	-875.88751	-78.54328	141.29303	-564.86694	92.32173	1296.55688	-760.58734	-61.76056	757.69647	-757.80908	-36.30258	616.85742	-759.25513	-33.25989	568.29211	-675.03607	175.08328	162.10448	-607.37579	-76.75449	156.97679	-649.51605	-68.86202	160.56978	-691.33466	233.87399	1064.01563	-594.06891	-82.05872	1495.71277	-776.29297	275.69843	876.58441	-771.67401	267.72736	744.70087				-717.08588	69.26962	219.17441	-744.55603	145.23207	575.41669	
184	3.660	-572.71521	92.30305	1805.17871	-720.63263	208.24197	538.66461	-583.98291	270.43179	1512.35681				-879.23889	88.08896	1066.94177	-669.33228	52.97144	161.59663	-784.17889	251.09973	640.52911	-778.91174	249.25493	574.76923	-809.35065	260.48950	496.97464	-517.95282	-73.07230	143.02869	-746.78748	-74.11691	876.15631	-596.23773	23.98592	168.98158	-726.11182	72.08761	573.21033	-715.44403	157.11009	220.36246	-796.67450	181.92126	182.04248	-770.11511	230.87033	203.24980	-592.33368	220.18193	174.06871	-882.43616	296.14734	144.72641	-556.04407	255.23878	164.40041	-696.12360	13.98316	524.89948	-622.18518	307.16428	158.12994	-527.99481	303.97513	146.41998	-658.61249	299.05396	157.36530	-658.76117	-19.05573	811.51233	-789.97998	42.72403	173.12926	-790.40552	-43.33470	485.02631	-547.12189	-29.67509	162.73180	-759.42566	-16.66022	205.95406	-875.88751	-78.54328	141.29303	-565.67621	92.12805	1302.21021	-754.41412	-62.84789	759.60138	-754.79083	-35.56696	617.16632	-756.59711	-32.29285	568.68884	-675.08301	174.85544	162.01826	-607.40637	-76.56799	156.92227	-649.47473	-68.76185	160.62799	-685.67438	233.68600	1064.77026	-600.68341	-82.04638	1501.64270	-770.05078	275.91754	876.84497	-766.52399	268.27097	744.96973				-716.93616	69.56245	219.08469	-741.39008	145.24863	575.82629	
185	3.680	-582.17389	91.76118	1810.28577	-717.59326	208.04172	538.34509	-589.71674	270.88699	1517.02478	-655.35577	214.52115	821.13715	-874.35638	89.53893	1066.26648	-669.22552	53.30322	161.44791	-780.52649	252.14426	641.42444	-775.95923	249.42496	575.10559	-806.59363	260.41675	497.63263	-517.91980	-73.01032	143.17534	-742.26367	-73.06109	876.18359	-596.25043	24.20261	168.74527	-723.20276	72.47124	573.50293	-715.22638	157.03368	220.28403	-796.44324	181.88478	182.08812	-769.69458	230.96254	203.37173	-592.22168	219.97476	173.96248	-882.40680	296.07779	144.65472	-555.71948	255.24838	164.20515	-693.20081	14.45241	524.71997	-622.06995	307.27524	158.16718	-528.11591	303.91904	146.50955	-658.48608	299.13950	157.45338	-654.22742	-19.14913	812.00818	-789.95013	43.11145	173.36856	-787.91687	-42.52860	485.61880	-546.98474	-29.58534	162.68925	-759.46948	-16.54930	206.03761	-875.79388	-78.47688	141.16841	-566.21918	92.23751	1307.72449	-750.94373	-61.95328	759.76929	-751.11932	-35.43456	617.98859	-752.49152	-31.88034	569.12445	-674.65204	175.14874	161.01962	-607.24469	-76.52747	157.17841	-649.56342	-68.69329	160.75885				-607.10712	-81.95654	1506.67261	-764.62402	276.08493	876.79254	-761.92212	268.46609	745.34113				-716.50049	69.58907	219.14905	-738.26624	146.05037	575.61035	
186	3.700	-591.46967	92.22498	1815.02319	-714.71161	207.94215	538.63202	-595.96051	270.54260	1521.41553	-650.02252	214.74472	820.45313	-869.64557	90.72129	1065.55164	-669.34100	53.26139	161.31294	-776.74445	252.04753	641.80927	-772.62115	249.64772	575.47345	-804.28552	260.94922	498.33386	-517.81085	-72.96118	143.22667	-737.90930	-72.41853	876.48639	-596.08075	24.27740	168.67723	-719.69012	72.85484	573.50623	-715.14374	156.83319	220.26411	-796.13550	181.89995	182.12140	-769.59003	230.84280	203.52136	-592.17096	219.97038	173.88229	-882.48138	296.00897	144.67094	-555.40161	255.11125	164.08942	-689.98553	14.33625	524.85553	-622.16608	307.38803	158.18340	-528.06287	304.11459	146.50941	-658.61249	299.05396	157.36530	-649.53284	-18.90378	812.33398	-789.80206	43.57413	173.46294	-785.33368	-41.79668	486.04810	-546.80316	-29.73528	162.57886	-759.33026	-16.43336	206.31107	-875.99792	-78.69180	141.55168	-567.25647	92.17207	1312.60071	-747.12219	-61.36507	760.31885	-747.62231	-35.05564	618.31903	-750.02405	-32.05616	569.68750	-674.64227	175.02051	161.39034	-607.50269	-76.27953	157.07698	-649.51074	-68.60084	160.83725				-613.61566	-82.20634	1511.96826	-758.88403	276.39346	877.01166	-757.04376	268.16547	745.43219				-716.30072	69.80283	219.05591	-735.01727	145.37698	575.98273	
